<?xml version="1.0" encoding="UTF-8" standalone="no"?>
<svg
   width="512"
   height="512"
   version="1.1"
   id="svg2"
   sodipodi:docname="anilist.svg"
   inkscape:version="1.3 (0e150ed6c4, 2023-07-21)"
   xmlns:inkscape="http://www.inkscape.org/namespaces/inkscape"
   xmlns:sodipodi="http://sodipodi.sourceforge.net/DTD/sodipodi-0.dtd"
   xmlns="http://www.w3.org/2000/svg"
   xmlns:svg="http://www.w3.org/2000/svg">
  <defs
     id="defs2" />
  <sodipodi:namedview
     id="namedview2"
     pagecolor="#505050"
     bordercolor="#ffffff"
     borderopacity="1"
     inkscape:showpageshadow="0"
     inkscape:pageopacity="0"
     inkscape:pagecheckerboard="1"
     inkscape:deskcolor="#505050"
     showgrid="false"
     inkscape:zoom="1.1462864"
     inkscape:cx="258.22517"
     inkscape:cy="281.7795"
     inkscape:window-width="1814"
     inkscape:window-height="1036"
     inkscape:window-x="0"
     inkscape:window-y="0"
     inkscape:window-maximized="1"
     inkscape:current-layer="svg2" />
  <title
     id="title1">AniList logo</title>
  <desc
     id="desc1">Anime and manga tracking website</desc>
  <path
     d="M 349.28801,349.78172 V 87.598558 c 0,-15.025634 -8.26845,-23.317965 -23.25616,-23.317965 H 274.8607 c -14.98912,0 -23.26038,8.292331 -23.26038,23.317965 V 212.11133 c 0,3.50711 33.70305,19.78839 34.58368,23.23229 25.67758,100.57821 5.57879,181.07168 -18.76308,184.83582 39.80009,1.97335 44.17941,21.1578 14.53405,8.04934 4.53522,-53.66559 22.23086,-53.56025 73.10425,-1.97477 0.4354,0.44525 10.43142,21.464 11.05363,21.464 h 120.1503 c 14.98912,0 23.25617,-8.28672 23.25617,-23.31516 v -51.29896 c 0,-15.02563 -8.26705,-23.31797 -23.25617,-23.31797 z"
     fill="#ffffff"
     id="path1"
     style="stroke-width:1.40452" />
  <path
     d="M 136.86728,64.283403 2.4806845,447.71941 H 106.89046 l 22.7421,-66.3246 h 113.71055 l 22.22804,66.3246 h 103.8901 L 235.59011,64.283403 Z M 153.407,296.42371 185.96816,190.2007 221.63332,296.42371 Z"
     fill="#ffffff"
     id="path2"
     style="stroke-width:1.40452" />
</svg>
