<?xml version="1.0" encoding="UTF-8" standalone="no"?>
<!-- Uploaded to: SVG Repo, www.svgrepo.com, Generator: SVG Repo Mixer Tools -->

<svg
   width="800px"
   height="800px"
   viewBox="0 0 24 24"
   fill="none"
   version="1.1"
   id="svg1"
   sodipodi:docname="theme.svg"
   inkscape:version="1.3 (0e150ed6c4, 2023-07-21)"
   xmlns:inkscape="http://www.inkscape.org/namespaces/inkscape"
   xmlns:sodipodi="http://sodipodi.sourceforge.net/DTD/sodipodi-0.dtd"
   xmlns="http://www.w3.org/2000/svg"
   xmlns:svg="http://www.w3.org/2000/svg">
  <defs
     id="defs1" />
  <sodipodi:namedview
     id="namedview1"
     pagecolor="#505050"
     bordercolor="#ffffff"
     borderopacity="1"
     inkscape:showpageshadow="0"
     inkscape:pageopacity="0"
     inkscape:pagecheckerboard="1"
     inkscape:deskcolor="#505050"
     showgrid="false"
     inkscape:zoom="1.0375"
     inkscape:cx="399.51807"
     inkscape:cy="400"
     inkscape:window-width="1814"
     inkscape:window-height="1036"
     inkscape:window-x="0"
     inkscape:window-y="0"
     inkscape:window-maximized="1"
     inkscape:current-layer="svg1" />
  <path
     d="M11.7935 10.7934L20.4603 3.45681C20.7653 3.19859 21.2173 3.21734 21.5 3.49992C21.7826 3.78253 21.8013 4.23461 21.5431 4.53966L14.2065 13.2064M11.7935 10.7934L9.58785 12.6605C8.7162 13.3984 8.66122 14.7236 9.46875 15.5311C10.2763 16.3386 11.6015 16.2837 12.3393 15.412L14.2065 13.2064M11.7935 10.7934L14.2065 13.2064M10.3398 17.75C10.3398 19.5449 8.88477 21 7.08984 21H2.5L2.7103 20.8948C3.74629 20.3768 4.26276 19.1914 3.93667 18.0799C3.87245 17.8611 3.83395 17.6334 3.85777 17.4066C4.02929 15.7731 5.41089 14.5 7.08984 14.5C8.88477 14.5 10.3398 15.955 10.3398 17.75Z"
     stroke="#000000"
     stroke-width="2"
     stroke-linecap="round"
     stroke-linejoin="round"
     id="path1"
     style="fill:#000000;fill-opacity:1;stroke-width:0.9;stroke-dasharray:none" />
</svg>
