<?xml version="1.0" encoding="UTF-8" standalone="no"?>
<!-- Generator: Adobe Illustrator 21.1.0, SVG Export Plug-In . SVG Version: 6.00 Build 0)  -->

<svg
   version="1.1"
   id="Layer_1"
   x="0px"
   y="0px"
   viewBox="0 0 125.401 125.401"
   xml:space="preserve"
   inkscape:version="1.3 (0e150ed6c4, 2023-07-21)"
   sodipodi:docname="youtube.svg"
   width="125.401"
   height="125.401"
   xmlns:inkscape="http://www.inkscape.org/namespaces/inkscape"
   xmlns:sodipodi="http://sodipodi.sourceforge.net/DTD/sodipodi-0.dtd"
   xmlns="http://www.w3.org/2000/svg"
   xmlns:svg="http://www.w3.org/2000/svg"
   xmlns:rdf="http://www.w3.org/1999/02/22-rdf-syntax-ns#"
   xmlns:cc="http://creativecommons.org/ns#"
   xmlns:dc="http://purl.org/dc/elements/1.1/"><metadata
     id="metadata33"><rdf:RDF><cc:Work
         rdf:about=""><dc:format>image/svg+xml</dc:format><dc:type
           rdf:resource="http://purl.org/dc/dcmitype/StillImage" /></cc:Work></rdf:RDF></metadata><defs
     id="defs31" /><sodipodi:namedview
     pagecolor="#ffffff"
     bordercolor="#666666"
     borderopacity="1"
     objecttolerance="10"
     gridtolerance="10"
     guidetolerance="10"
     inkscape:pageopacity="0"
     inkscape:pageshadow="2"
     inkscape:window-width="1814"
     inkscape:window-height="1036"
     id="namedview29"
     showgrid="false"
     inkscape:zoom="2.7177851"
     inkscape:cx="103.76096"
     inkscape:cy="82.420056"
     inkscape:window-x="0"
     inkscape:window-y="0"
     inkscape:window-maximized="1"
     inkscape:current-layer="Layer_1"
     inkscape:showpageshadow="0"
     inkscape:pagecheckerboard="1"
     inkscape:deskcolor="#505050" /><style
     type="text/css"
     id="style3">&#10;	.st0{fill:#FF0000;}&#10;	.st1{fill:#FFFFFF;}&#10;	.st2{fill:#282828;}&#10;</style><g
     id="g5"
     transform="translate(2.0000504,20.2005)"><path
       style="fill:#ffffff;fill-opacity:1"
       d="m 60.699219,0 c 0,0 -38,0 -47.5,2.5 C 8.0992187,3.9 3.9,8.1007812 2.5,13.300781 0,22.800781 0,42.5 0,42.5 c 0,0 0,19.799219 2.5,29.199219 1.4,5.2 5.4992188,9.301172 10.699219,10.701172 9.6,2.6 47.5,2.599609 47.5,2.599609 0,0 38,0 47.500001,-2.5 5.2,-1.4 9.30117,-5.499219 10.70117,-10.699219 2.5,-9.5 2.5,-29.201172 2.5,-29.201172 0,0 0.1,-19.798828 -2.5,-29.298828 -1.4,-5.1999997 -5.50117,-9.3011716 -10.70117,-10.7011716 C 98.699219,-3.90625e-4 60.699219,0 60.699219,0 Z M 48.599609,24.300781 80.199219,42.5 48.599609,60.699219 Z"
       id="path7" /></g></svg>
